# xmcd
#
# Track frame offsets: 
#        150
#        15673
#        24043
#        41564
#        72875
#        95828
#        117598
#        139863
#        163169
#        187773
#        210097
#        230892
#        255225
#
# Disc length: 3876 seconds
#
# Revision: 1
# Processed by: cddbd v1.5.1PL0 Copyright (c) Steve Scherf et al.
# Submitted via: ExactAudioCopy v0.95a4
#
DISCID=a70f220d
DTITLE=carlos_bechagas-peter_kowald - open_secrets
DYEAR=1999
DGENRE=open jazz
TTITLE0=part_01
TTITLE1=part_02
TTITLE2=part_03
TTITLE3=part_04
TTITLE4=part_05
TTITLE5=part_06
TTITLE6=part_07
TTITLE7=part_08
TTITLE8=part_09
TTITLE9=part_10
TTITLE10=part_11
TTITLE11=part_12
TTITLE12=part_13
EXTD=a suite in 13 parts\n\nrecorded oct 1999 tia studio - lisbon\n\nc
EXTD=arlos bechagas-flutes\npeter kowald-bass\n\ncd - forward 01- 2001
EXTD=\neac v0.95 prebeta 4 - flac 1.1.1
EXTT0=
EXTT1=
EXTT2=
EXTT3=
EXTT4=
EXTT5=
EXTT6=
EXTT7=
EXTT8=
EXTT9=
EXTT10=
EXTT11=
EXTT12=
PLAYORDER=
